<svg id="visual" viewBox="0 0 960 540" width="960" height="540" xmlns="http://www.w3.org/2000/svg" xmlns:xlink="http://www.w3.org/1999/xlink" version="1.1"><rect x="0" y="0" width="960" height="540" fill="#001220"></rect><defs><linearGradient id="grad1_0" x1="43.8%" y1="0%" x2="100%" y2="100%"><stop offset="14.444444444444446%" stop-color="#6600ff" stop-opacity="1"></stop><stop offset="85.55555555555554%" stop-color="#6600ff" stop-opacity="1"></stop></linearGradient></defs><defs><linearGradient id="grad1_1" x1="43.8%" y1="0%" x2="100%" y2="100%"><stop offset="14.444444444444446%" stop-color="#6600ff" stop-opacity="1"></stop><stop offset="85.55555555555554%" stop-color="#002ce8" stop-opacity="1"></stop></linearGradient></defs><defs><linearGradient id="grad1_2" x1="43.8%" y1="0%" x2="100%" y2="100%"><stop offset="14.444444444444446%" stop-color="#0035cb" stop-opacity="1"></stop><stop offset="85.55555555555554%" stop-color="#002ce8" stop-opacity="1"></stop></linearGradient></defs><defs><linearGradient id="grad1_3" x1="43.8%" y1="0%" x2="100%" y2="100%"><stop offset="14.444444444444446%" stop-color="#0035cb" stop-opacity="1"></stop><stop offset="85.55555555555554%" stop-color="#0034ab" stop-opacity="1"></stop></linearGradient></defs><defs><linearGradient id="grad1_4" x1="43.8%" y1="0%" x2="100%" y2="100%"><stop offset="14.444444444444446%" stop-color="#002f88" stop-opacity="1"></stop><stop offset="85.55555555555554%" stop-color="#0034ab" stop-opacity="1"></stop></linearGradient></defs><defs><linearGradient id="grad1_5" x1="43.8%" y1="0%" x2="100%" y2="100%"><stop offset="14.444444444444446%" stop-color="#002f88" stop-opacity="1"></stop><stop offset="85.55555555555554%" stop-color="#002764" stop-opacity="1"></stop></linearGradient></defs><defs><linearGradient id="grad1_6" x1="43.8%" y1="0%" x2="100%" y2="100%"><stop offset="14.444444444444446%" stop-color="#001d41" stop-opacity="1"></stop><stop offset="85.55555555555554%" stop-color="#002764" stop-opacity="1"></stop></linearGradient></defs><defs><linearGradient id="grad1_7" x1="43.8%" y1="0%" x2="100%" y2="100%"><stop offset="14.444444444444446%" stop-color="#001d41" stop-opacity="1"></stop><stop offset="85.55555555555554%" stop-color="#001220" stop-opacity="1"></stop></linearGradient></defs><defs><linearGradient id="grad2_0" x1="0%" y1="0%" x2="56.3%" y2="100%"><stop offset="14.444444444444446%" stop-color="#6600ff" stop-opacity="1"></stop><stop offset="85.55555555555554%" stop-color="#6600ff" stop-opacity="1"></stop></linearGradient></defs><defs><linearGradient id="grad2_1" x1="0%" y1="0%" x2="56.3%" y2="100%"><stop offset="14.444444444444446%" stop-color="#002ce8" stop-opacity="1"></stop><stop offset="85.55555555555554%" stop-color="#6600ff" stop-opacity="1"></stop></linearGradient></defs><defs><linearGradient id="grad2_2" x1="0%" y1="0%" x2="56.3%" y2="100%"><stop offset="14.444444444444446%" stop-color="#002ce8" stop-opacity="1"></stop><stop offset="85.55555555555554%" stop-color="#0035cb" stop-opacity="1"></stop></linearGradient></defs><defs><linearGradient id="grad2_3" x1="0%" y1="0%" x2="56.3%" y2="100%"><stop offset="14.444444444444446%" stop-color="#0034ab" stop-opacity="1"></stop><stop offset="85.55555555555554%" stop-color="#0035cb" stop-opacity="1"></stop></linearGradient></defs><defs><linearGradient id="grad2_4" x1="0%" y1="0%" x2="56.3%" y2="100%"><stop offset="14.444444444444446%" stop-color="#0034ab" stop-opacity="1"></stop><stop offset="85.55555555555554%" stop-color="#002f88" stop-opacity="1"></stop></linearGradient></defs><defs><linearGradient id="grad2_5" x1="0%" y1="0%" x2="56.3%" y2="100%"><stop offset="14.444444444444446%" stop-color="#002764" stop-opacity="1"></stop><stop offset="85.55555555555554%" stop-color="#002f88" stop-opacity="1"></stop></linearGradient></defs><defs><linearGradient id="grad2_6" x1="0%" y1="0%" x2="56.3%" y2="100%"><stop offset="14.444444444444446%" stop-color="#002764" stop-opacity="1"></stop><stop offset="85.55555555555554%" stop-color="#001d41" stop-opacity="1"></stop></linearGradient></defs><defs><linearGradient id="grad2_7" x1="0%" y1="0%" x2="56.3%" y2="100%"><stop offset="14.444444444444446%" stop-color="#001220" stop-opacity="1"></stop><stop offset="85.55555555555554%" stop-color="#001d41" stop-opacity="1"></stop></linearGradient></defs><g transform="translate(960, 0)"><path d="M0 540C-32.7 533.8 -65.4 527.6 -88.7 503.2C-112 478.9 -125.9 436.4 -157.7 433.2C-189.4 430 -239.1 466.2 -264.5 458.1C-289.9 450.1 -291.1 397.8 -315.6 376.1C-340.2 354.4 -388.1 363.3 -413.7 347.1C-439.2 330.9 -442.4 289.5 -437.3 252.5C-432.2 215.5 -418.8 182.7 -433.2 157.7C-447.6 132.6 -489.7 115.3 -512.1 90.3C-534.5 65.3 -537.3 32.7 -540 0L0 0Z" fill="#001830"></path><path d="M0 472.5C-28.6 467.1 -57.3 461.6 -77.6 440.3C-98 419 -110.2 381.8 -138 379C-165.8 376.3 -209.2 407.9 -231.4 400.9C-253.7 393.8 -254.7 348.1 -276.2 329.1C-297.6 310.1 -339.6 317.9 -362 303.7C-384.3 289.5 -387.1 253.3 -382.7 220.9C-378.2 188.5 -366.5 159.9 -379 138C-391.6 116.1 -428.5 100.9 -448.1 79C-467.7 57.1 -470.1 28.6 -472.5 0L0 0Z" fill="#002252"></path><path d="M0 405C-24.5 400.3 -49.1 395.7 -66.6 377.4C-84 359.2 -94.4 327.3 -118.3 324.9C-142.1 322.5 -179.3 349.6 -198.4 343.6C-217.4 337.6 -218.3 298.4 -236.7 282.1C-255.1 265.8 -291.1 272.5 -310.2 260.3C-329.4 248.2 -331.8 217.2 -328 189.4C-324.2 161.6 -314.1 137 -324.9 118.3C-335.7 99.5 -367.3 86.5 -384.1 67.7C-400.9 49 -402.9 24.5 -405 0L0 0Z" fill="#002b76"></path><path d="M0 337.5C-20.4 333.6 -40.9 329.7 -55.5 314.5C-70 299.3 -78.7 272.7 -98.5 270.7C-118.4 268.8 -149.4 291.4 -165.3 286.3C-181.2 281.3 -181.9 248.6 -197.3 235.1C-212.6 221.5 -242.6 227.1 -258.5 216.9C-274.5 206.8 -276.5 181 -273.3 157.8C-270.2 134.7 -261.8 114.2 -270.7 98.5C-279.7 82.9 -306 72.1 -320.1 56.4C-334.1 40.8 -335.8 20.4 -337.5 0L0 0Z" fill="#003299"></path><path d="M0 270C-16.4 266.9 -32.7 263.8 -44.4 251.6C-56 239.4 -63 218.2 -78.8 216.6C-94.7 215 -119.5 233.1 -132.2 229.1C-145 225 -145.5 198.9 -157.8 188.1C-170.1 177.2 -194 181.7 -206.8 173.6C-219.6 165.4 -221.2 144.8 -218.7 126.3C-216.1 107.7 -209.4 91.4 -216.6 78.8C-223.8 66.3 -244.8 57.6 -256.1 45.1C-267.3 32.7 -268.6 16.3 -270 0L0 0Z" fill="#0035bb"></path><path d="M0 202.5C-12.3 200.2 -24.5 197.8 -33.3 188.7C-42 179.6 -47.2 163.6 -59.1 162.4C-71 161.3 -89.7 174.8 -99.2 171.8C-108.7 168.8 -109.1 149.2 -118.4 141C-127.6 132.9 -145.5 136.2 -155.1 130.2C-164.7 124.1 -165.9 108.6 -164 94.7C-162.1 80.8 -157.1 68.5 -162.4 59.1C-167.8 49.7 -183.6 43.2 -192 33.9C-200.4 24.5 -201.5 12.2 -202.5 0L0 0Z" fill="#0032da"></path><path d="M0 135C-8.2 133.4 -16.4 131.9 -22.2 125.8C-28 119.7 -31.5 109.1 -39.4 108.3C-47.4 107.5 -59.8 116.5 -66.1 114.5C-72.5 112.5 -72.8 99.5 -78.9 94C-85 88.6 -97 90.8 -103.4 86.8C-109.8 82.7 -110.6 72.4 -109.3 63.1C-108.1 53.9 -104.7 45.7 -108.3 39.4C-111.9 33.2 -122.4 28.8 -128 22.6C-133.6 16.3 -134.3 8.2 -135 0L0 0Z" fill="#4221f4"></path><path d="M0 67.5C-4.1 66.7 -8.2 65.9 -11.1 62.9C-14 59.9 -15.7 54.5 -19.7 54.1C-23.7 53.8 -29.9 58.3 -33.1 57.3C-36.2 56.3 -36.4 49.7 -39.5 47C-42.5 44.3 -48.5 45.4 -51.7 43.4C-54.9 41.4 -55.3 36.2 -54.7 31.6C-54 26.9 -52.4 22.8 -54.1 19.7C-55.9 16.6 -61.2 14.4 -64 11.3C-66.8 8.2 -67.2 4.1 -67.5 0L0 0Z" fill="#6600ff"></path></g><g transform="translate(0, 540)"><path d="M0 -540C24.9 -505.8 49.9 -471.6 83.5 -473.7C117.2 -475.8 159.5 -514.1 183.3 -503.7C207.1 -493.3 212.3 -434.2 241 -417.4C269.7 -400.6 321.9 -426.2 347.1 -413.7C372.4 -401.1 370.7 -350.6 376.9 -316.3C383.1 -281.9 397.2 -263.9 427 -246.5C456.7 -229.1 502.2 -212.5 505.6 -184C508.9 -155.5 470.1 -115.3 468.8 -82.7C467.5 -50 503.7 -25 540 0L0 0Z" fill="#001830"></path><path d="M0 -472.5C21.8 -442.6 43.6 -412.7 73.1 -414.5C102.5 -416.3 139.6 -449.8 160.4 -440.7C181.2 -431.6 185.8 -379.9 210.9 -365.2C236 -350.6 281.6 -372.9 303.7 -362C325.8 -351 324.4 -306.7 329.8 -276.7C335.2 -246.7 347.5 -230.9 373.6 -215.7C399.6 -200.5 439.4 -185.9 442.4 -161C445.3 -136.1 411.3 -100.9 410.2 -72.3C409 -43.8 440.8 -21.9 472.5 0L0 0Z" fill="#002252"></path><path d="M0 -405C18.7 -379.4 37.4 -353.7 62.6 -355.3C87.9 -356.8 119.7 -385.5 137.5 -377.8C155.3 -370 159.2 -325.7 180.7 -313.1C202.3 -300.5 241.4 -319.6 260.3 -310.2C279.3 -300.9 278 -262.9 282.7 -237.2C287.3 -211.4 297.9 -197.9 320.2 -184.9C342.5 -171.9 376.7 -159.4 379.2 -138C381.7 -116.7 352.5 -86.5 351.6 -62C350.6 -37.5 377.8 -18.8 405 0L0 0Z" fill="#002b76"></path><path d="M0 -337.5C15.6 -316.1 31.2 -294.8 52.2 -296.1C73.2 -297.3 99.7 -321.3 114.6 -314.8C129.4 -308.3 132.7 -271.4 150.6 -260.9C168.6 -250.4 201.2 -266.4 216.9 -258.5C232.7 -250.7 231.7 -219.1 235.6 -197.7C239.4 -176.2 248.2 -164.9 266.8 -154.1C285.5 -143.2 313.9 -132.8 316 -115C318.1 -97.2 293.8 -72.1 293 -51.7C292.2 -31.3 314.8 -15.6 337.5 0L0 0Z" fill="#003299"></path><path d="M0 -270C12.5 -252.9 24.9 -235.8 41.8 -236.8C58.6 -237.9 79.8 -257 91.7 -251.8C103.6 -246.6 106.2 -217.1 120.5 -208.7C134.8 -200.3 160.9 -213.1 173.6 -206.8C186.2 -200.6 185.3 -175.3 188.4 -158.1C191.5 -141 198.6 -131.9 213.5 -123.3C228.4 -114.6 251.1 -106.2 252.8 -92C254.4 -77.8 235 -57.6 234.4 -41.3C233.7 -25 251.9 -12.5 270 0L0 0Z" fill="#0035bb"></path><path d="M0 -202.5C9.4 -189.7 18.7 -176.9 31.3 -177.6C43.9 -178.4 59.8 -192.8 68.7 -188.9C77.7 -185 79.6 -162.8 90.4 -156.5C101.1 -150.2 120.7 -159.8 130.2 -155.1C139.6 -150.4 139 -131.5 141.3 -118.6C143.7 -105.7 148.9 -98.9 160.1 -92.4C171.3 -85.9 188.3 -79.7 189.6 -69C190.8 -58.3 176.3 -43.2 175.8 -31C175.3 -18.8 188.9 -9.4 202.5 0L0 0Z" fill="#0032da"></path><path d="M0 -135C6.2 -126.5 12.5 -117.9 20.9 -118.4C29.3 -118.9 39.9 -128.5 45.8 -125.9C51.8 -123.3 53.1 -108.6 60.2 -104.4C67.4 -100.2 80.5 -106.5 86.8 -103.4C93.1 -100.3 92.7 -87.6 94.2 -79.1C95.8 -70.5 99.3 -66 106.7 -61.6C114.2 -57.3 125.6 -53.1 126.4 -46C127.2 -38.9 117.5 -28.8 117.2 -20.7C116.9 -12.5 125.9 -6.3 135 0L0 0Z" fill="#4221f4"></path><path d="M0 -67.5C3.1 -63.2 6.2 -59 10.4 -59.2C14.6 -59.5 19.9 -64.3 22.9 -63C25.9 -61.7 26.5 -54.3 30.1 -52.2C33.7 -50.1 40.2 -53.3 43.4 -51.7C46.5 -50.1 46.3 -43.8 47.1 -39.5C47.9 -35.2 49.6 -33 53.4 -30.8C57.1 -28.6 62.8 -26.6 63.2 -23C63.6 -19.4 58.8 -14.4 58.6 -10.3C58.4 -6.3 63 -3.1 67.5 0L0 0Z" fill="#6600ff"></path></g></svg>