<svg id="visual" viewBox="0 0 960 540" width="960" height="540" xmlns="http://www.w3.org/2000/svg" xmlns:xlink="http://www.w3.org/1999/xlink" version="1.1"><g stroke-width="1" stroke-linejoin="bevel"><path d="M466.8 277L416.2 278L445.3 302Z" fill="#00193b" stroke="#00193b"></path><path d="M416.2 278L411.2 288L445.3 302Z" fill="#3c0d73" stroke="#3c0d73"></path><path d="M466.8 277L435.8 245L416.2 278Z" fill="#081c58" stroke="#081c58"></path><path d="M411.2 288L402.8 321L445.3 302Z" fill="#001731" stroke="#001731"></path><path d="M411.2 288L398.8 318L402.8 321Z" fill="#00193b" stroke="#00193b"></path><path d="M416.3 341L503.8 300L445.3 302Z" fill="#001b46" stroke="#001b46"></path><path d="M445.3 302L503.8 300L466.8 277Z" fill="#00193b" stroke="#00193b"></path><path d="M506.7 181L413.2 185L435.8 245Z" fill="#081c58" stroke="#081c58"></path><path d="M374.8 317L416.3 341L402.8 321Z" fill="#211967" stroke="#211967"></path><path d="M402.8 321L416.3 341L445.3 302Z" fill="#001731" stroke="#001731"></path><path d="M411.2 288L374.8 317L398.8 318Z" fill="#211967" stroke="#211967"></path><path d="M398.8 318L374.8 317L402.8 321Z" fill="#00193b" stroke="#00193b"></path><path d="M363.4 288L374.8 317L411.2 288Z" fill="#2e156e" stroke="#2e156e"></path><path d="M363.4 288L411.2 288L416.2 278Z" fill="#3c0d73" stroke="#3c0d73"></path><path d="M343.3 249L363.4 288L416.2 278Z" fill="#001b46" stroke="#001b46"></path><path d="M363.4 288L360.4 307L374.8 317Z" fill="#00193b" stroke="#00193b"></path><path d="M506.7 181L435.8 245L466.8 277Z" fill="#2e156e" stroke="#2e156e"></path><path d="M435.8 245L343.3 249L416.2 278Z" fill="#2e156e" stroke="#2e156e"></path><path d="M378.8 194L343.3 249L435.8 245Z" fill="#00101c" stroke="#00101c"></path><path d="M363.4 288L319.9 280L360.4 307Z" fill="#141b60" stroke="#141b60"></path><path d="M413.2 185L378.8 194L435.8 245Z" fill="#3c0d73" stroke="#3c0d73"></path><path d="M374.8 317L400.8 380L416.3 341Z" fill="#001b46" stroke="#001b46"></path><path d="M416.3 341L436.3 406L503.8 300Z" fill="#141b60" stroke="#141b60"></path><path d="M289.4 379L400.8 380L374.8 317Z" fill="#3c0d73" stroke="#3c0d73"></path><path d="M533.7 196L506.7 181L466.8 277Z" fill="#001731" stroke="#001731"></path><path d="M319.9 227L319.9 280L343.3 249Z" fill="#001731" stroke="#001731"></path><path d="M343.3 249L319.9 280L363.4 288Z" fill="#00193b" stroke="#00193b"></path><path d="M360.4 307L302.8 327L374.8 317Z" fill="#001731" stroke="#001731"></path><path d="M503.8 300L533.7 196L466.8 277Z" fill="#211967" stroke="#211967"></path><path d="M400.8 380L436.3 406L416.3 341Z" fill="#00101c" stroke="#00101c"></path><path d="M378.8 194L319.9 227L343.3 249Z" fill="#141b60" stroke="#141b60"></path><path d="M493.7 113L490.3 153L550.2 129Z" fill="#2e156e" stroke="#2e156e"></path><path d="M506.7 181L490.3 153L413.2 185Z" fill="#141b60" stroke="#141b60"></path><path d="M413.2 185L374.8 122L378.8 194Z" fill="#001b46" stroke="#001b46"></path><path d="M528.7 401L562.7 345L503.8 300Z" fill="#3c0d73" stroke="#3c0d73"></path><path d="M503.8 300L603.2 235L533.7 196Z" fill="#00193b" stroke="#00193b"></path><path d="M400.8 380L435.8 419L436.3 406Z" fill="#001b46" stroke="#001b46"></path><path d="M436.3 406L528.7 401L503.8 300Z" fill="#3c0d73" stroke="#3c0d73"></path><path d="M281.4 270L302.8 327L319.9 280Z" fill="#00193b" stroke="#00193b"></path><path d="M319.9 280L302.8 327L360.4 307Z" fill="#081c58" stroke="#081c58"></path><path d="M400.8 380L397.8 501L435.8 419Z" fill="#00193b" stroke="#00193b"></path><path d="M435.8 419L528.7 401L436.3 406Z" fill="#001731" stroke="#001731"></path><path d="M490.3 153L460.2 126L413.2 185Z" fill="#2e156e" stroke="#2e156e"></path><path d="M378.8 194L309.4 111L319.9 227Z" fill="#00193b" stroke="#00193b"></path><path d="M550.7 470L533.2 403L528.7 401Z" fill="#3c0d73" stroke="#3c0d73"></path><path d="M528.7 401L533.2 403L562.7 345Z" fill="#001426" stroke="#001426"></path><path d="M460.2 126L433.3 120L413.2 185Z" fill="#211967" stroke="#211967"></path><path d="M283.8 240L281.4 270L319.9 280Z" fill="#001426" stroke="#001426"></path><path d="M319.9 227L283.8 240L319.9 280Z" fill="#001b46" stroke="#001b46"></path><path d="M266.8 225L283.8 240L319.9 227Z" fill="#141b60" stroke="#141b60"></path><path d="M562.7 345L603.2 235L503.8 300Z" fill="#001c4f" stroke="#001c4f"></path><path d="M550.2 129L490.3 153L506.7 181Z" fill="#001731" stroke="#001731"></path><path d="M490.3 153L493.7 113L460.2 126Z" fill="#001c4f" stroke="#001c4f"></path><path d="M533.2 403L579.6 372L562.7 345Z" fill="#211967" stroke="#211967"></path><path d="M562.7 345L623.2 353L603.2 235Z" fill="#001731" stroke="#001731"></path><path d="M433.3 120L374.8 122L413.2 185Z" fill="#3c0d73" stroke="#3c0d73"></path><path d="M550.2 129L506.7 181L533.7 196Z" fill="#081c58" stroke="#081c58"></path><path d="M460.2 126L427.3 105L433.3 120Z" fill="#081c58" stroke="#081c58"></path><path d="M433.3 120L427.3 105L374.8 122Z" fill="#001426" stroke="#001426"></path><path d="M497.8 92L427.3 105L460.2 126Z" fill="#001731" stroke="#001731"></path><path d="M309.4 111L266.8 225L319.9 227Z" fill="#00101c" stroke="#00101c"></path><path d="M283.8 240L232.9 266L281.4 270Z" fill="#001b46" stroke="#001b46"></path><path d="M230.9 295L289.4 379L302.8 327Z" fill="#00101c" stroke="#00101c"></path><path d="M302.8 327L289.4 379L374.8 317Z" fill="#00193b" stroke="#00193b"></path><path d="M230.9 295L302.8 327L281.4 270Z" fill="#081c58" stroke="#081c58"></path><path d="M603.2 235L550.2 129L533.7 196Z" fill="#211967" stroke="#211967"></path><path d="M550.2 129L497.8 92L493.7 113Z" fill="#00193b" stroke="#00193b"></path><path d="M493.7 113L497.8 92L460.2 126Z" fill="#00101c" stroke="#00101c"></path><path d="M609.2 423L617.7 357L579.6 372Z" fill="#001c4f" stroke="#001c4f"></path><path d="M579.6 372L617.7 357L562.7 345Z" fill="#211967" stroke="#211967"></path><path d="M617.7 357L623.2 353L562.7 345Z" fill="#2e156e" stroke="#2e156e"></path><path d="M427.3 105L382.8 85L374.8 122Z" fill="#001426" stroke="#001426"></path><path d="M374.8 122L309.4 111L378.8 194Z" fill="#211967" stroke="#211967"></path><path d="M412.3 0L382.8 85L427.3 105Z" fill="#00193b" stroke="#00193b"></path><path d="M382.8 85L338.3 96L374.8 122Z" fill="#001b46" stroke="#001b46"></path><path d="M184.9 257L232.9 266L266.8 225Z" fill="#00101c" stroke="#00101c"></path><path d="M266.8 225L232.9 266L283.8 240Z" fill="#2e156e" stroke="#2e156e"></path><path d="M609.2 423L623.2 353L617.7 357Z" fill="#00193b" stroke="#00193b"></path><path d="M609.2 423L640.1 346L623.2 353Z" fill="#081c58" stroke="#081c58"></path><path d="M623.2 353L667.1 296L603.2 235Z" fill="#2e156e" stroke="#2e156e"></path><path d="M232.9 266L230.9 295L281.4 270Z" fill="#141b60" stroke="#141b60"></path><path d="M338.3 96L309.4 111L374.8 122Z" fill="#001426" stroke="#001426"></path><path d="M382.8 85L341.4 84L338.3 96Z" fill="#081c58" stroke="#081c58"></path><path d="M338.3 96L302.4 90L309.4 111Z" fill="#3c0d73" stroke="#3c0d73"></path><path d="M667.1 296L655.2 226L603.2 235Z" fill="#001731" stroke="#001731"></path><path d="M603.2 235L655.2 226L550.2 129Z" fill="#081c58" stroke="#081c58"></path><path d="M435.8 419L550.7 470L528.7 401Z" fill="#00193b" stroke="#00193b"></path><path d="M533.2 403L609.2 423L579.6 372Z" fill="#001c4f" stroke="#001c4f"></path><path d="M537.2 529L550.7 470L435.8 419Z" fill="#3c0d73" stroke="#3c0d73"></path><path d="M550.7 470L609.2 423L533.2 403Z" fill="#211967" stroke="#211967"></path><path d="M689.2 349L667.1 296L640.1 346Z" fill="#00101c" stroke="#00101c"></path><path d="M640.1 346L667.1 296L623.2 353Z" fill="#001c4f" stroke="#001c4f"></path><path d="M297.4 472L397.8 501L400.8 380Z" fill="#081c58" stroke="#081c58"></path><path d="M667.1 296L668.1 227L655.2 226Z" fill="#141b60" stroke="#141b60"></path><path d="M643.6 88L603.2 66L550.2 129Z" fill="#00101c" stroke="#00101c"></path><path d="M341.4 84L302.4 90L338.3 96Z" fill="#00101c" stroke="#00101c"></path><path d="M309.4 111L219.4 125L266.8 225Z" fill="#00193b" stroke="#00193b"></path><path d="M200.9 436L261.4 437L289.4 379Z" fill="#211967" stroke="#211967"></path><path d="M289.4 379L297.4 472L400.8 380Z" fill="#141b60" stroke="#141b60"></path><path d="M261.4 437L297.4 472L289.4 379Z" fill="#001426" stroke="#001426"></path><path d="M302.4 90L280.8 95L309.4 111Z" fill="#00193b" stroke="#00193b"></path><path d="M164.9 184L184.9 257L266.8 225Z" fill="#001b46" stroke="#001b46"></path><path d="M232.9 266L184.9 257L230.9 295Z" fill="#211967" stroke="#211967"></path><path d="M230.9 295L176.4 328L289.4 379Z" fill="#001c4f" stroke="#001c4f"></path><path d="M708.2 374L689.2 349L703.6 391Z" fill="#081c58" stroke="#081c58"></path><path d="M667.1 296L699.2 257L668.1 227Z" fill="#211967" stroke="#211967"></path><path d="M730.1 287L699.2 257L667.1 296Z" fill="#2e156e" stroke="#2e156e"></path><path d="M347.4 540L403.8 540L397.8 501Z" fill="#2e156e" stroke="#2e156e"></path><path d="M397.8 501L537.2 529L435.8 419Z" fill="#2e156e" stroke="#2e156e"></path><path d="M643.6 88L550.2 129L679.6 119Z" fill="#001b46" stroke="#001b46"></path><path d="M550.2 129L603.2 66L497.8 92Z" fill="#001c4f" stroke="#001c4f"></path><path d="M383.8 0L341.4 84L382.8 85Z" fill="#211967" stroke="#211967"></path><path d="M301.8 0L292.9 50L341.4 84Z" fill="#001731" stroke="#001731"></path><path d="M698.1 176L655.2 226L668.1 227Z" fill="#081c58" stroke="#081c58"></path><path d="M280.8 95L219.4 125L309.4 111Z" fill="#001426" stroke="#001426"></path><path d="M403.8 540L537.2 529L397.8 501Z" fill="#001b46" stroke="#001b46"></path><path d="M665.1 472L682.6 443L609.2 423Z" fill="#141b60" stroke="#141b60"></path><path d="M703.6 391L689.2 349L640.1 346Z" fill="#141b60" stroke="#141b60"></path><path d="M184.9 257L176.4 328L230.9 295Z" fill="#00101c" stroke="#00101c"></path><path d="M280.8 95L222.4 119L219.4 125Z" fill="#001b46" stroke="#001b46"></path><path d="M341.4 84L292.9 50L302.4 90Z" fill="#081c58" stroke="#081c58"></path><path d="M302.4 90L292.9 50L280.8 95Z" fill="#3c0d73" stroke="#3c0d73"></path><path d="M280.8 95L226.9 51L222.4 119Z" fill="#211967" stroke="#211967"></path><path d="M472.2 6L427.3 105L497.8 92Z" fill="#141b60" stroke="#141b60"></path><path d="M511.7 0L472.2 6L497.8 92Z" fill="#081c58" stroke="#081c58"></path><path d="M701.2 182L698.1 176L668.1 227Z" fill="#001c4f" stroke="#001c4f"></path><path d="M699.2 257L701.2 182L668.1 227Z" fill="#081c58" stroke="#081c58"></path><path d="M679.6 119L550.2 129L655.2 226Z" fill="#141b60" stroke="#141b60"></path><path d="M472.2 6L458.2 0L427.3 105Z" fill="#001c4f" stroke="#001c4f"></path><path d="M458.2 0L412.3 0L427.3 105Z" fill="#3c0d73" stroke="#3c0d73"></path><path d="M320.3 540L347.4 540L297.4 472Z" fill="#00193b" stroke="#00193b"></path><path d="M297.4 472L347.4 540L397.8 501Z" fill="#001c4f" stroke="#001c4f"></path><path d="M412.3 0L383.8 0L382.8 85Z" fill="#001731" stroke="#001731"></path><path d="M703.6 391L640.1 346L609.2 423Z" fill="#001b46" stroke="#001b46"></path><path d="M689.2 349L730.1 287L667.1 296Z" fill="#001731" stroke="#001731"></path><path d="M743.6 154L698.1 176L701.2 182Z" fill="#001c4f" stroke="#001c4f"></path><path d="M218.4 460L235.9 474L261.4 437Z" fill="#3c0d73" stroke="#3c0d73"></path><path d="M261.4 437L243.4 487L297.4 472Z" fill="#141b60" stroke="#141b60"></path><path d="M603.2 66L511.7 0L497.8 92Z" fill="#2e156e" stroke="#2e156e"></path><path d="M472.2 6L511.7 0L458.2 0Z" fill="#081c58" stroke="#081c58"></path><path d="M579.6 0L511.7 0L603.2 66Z" fill="#001c4f" stroke="#001c4f"></path><path d="M704.6 105L679.6 119L736.6 123Z" fill="#001731" stroke="#001731"></path><path d="M698.1 176L679.6 119L655.2 226Z" fill="#3c0d73" stroke="#3c0d73"></path><path d="M682.6 443L703.6 391L609.2 423Z" fill="#001731" stroke="#001731"></path><path d="M176.4 328L200.9 436L289.4 379Z" fill="#001c4f" stroke="#001c4f"></path><path d="M200.9 436L218.4 460L261.4 437Z" fill="#001c4f" stroke="#001c4f"></path><path d="M225.4 520L243.4 487L235.9 474Z" fill="#001b46" stroke="#001b46"></path><path d="M235.9 474L243.4 487L261.4 437Z" fill="#00101c" stroke="#00101c"></path><path d="M740.6 350L730.1 287L689.2 349Z" fill="#001426" stroke="#001426"></path><path d="M251.8 540L320.3 540L297.4 472Z" fill="#081c58" stroke="#081c58"></path><path d="M219.4 125L164.9 184L266.8 225Z" fill="#211967" stroke="#211967"></path><path d="M184.9 257L115.4 280L176.4 328Z" fill="#3c0d73" stroke="#3c0d73"></path><path d="M121.5 62L164.9 184L219.4 125Z" fill="#081c58" stroke="#081c58"></path><path d="M665.1 472L609.2 423L624.7 525Z" fill="#001b46" stroke="#001b46"></path><path d="M372.3 580L571.2 540L537.2 529Z" fill="#141b60" stroke="#141b60"></path><path d="M537.2 529L571.2 540L550.7 470Z" fill="#00193b" stroke="#00193b"></path><path d="M320.3 540L348.8 556L347.4 540Z" fill="#2e156e" stroke="#2e156e"></path><path d="M347.4 540L348.8 556L403.8 540Z" fill="#00193b" stroke="#00193b"></path><path d="M403.8 540L372.3 580L537.2 529Z" fill="#00193b" stroke="#00193b"></path><path d="M571.2 540L578.2 540L550.7 470Z" fill="#001c4f" stroke="#001c4f"></path><path d="M372.3 580L578.2 540L571.2 540Z" fill="#141b60" stroke="#141b60"></path><path d="M624.7 525L609.2 423L550.7 470Z" fill="#00101c" stroke="#00101c"></path><path d="M671.2 0L616.7 32L643.6 88Z" fill="#001b46" stroke="#001b46"></path><path d="M643.6 88L616.7 32L603.2 66Z" fill="#211967" stroke="#211967"></path><path d="M115.4 280L157.9 385L176.4 328Z" fill="#001731" stroke="#001731"></path><path d="M176.4 328L157.9 385L200.9 436Z" fill="#001731" stroke="#001731"></path><path d="M225.4 520L235.9 474L218.4 460Z" fill="#141b60" stroke="#141b60"></path><path d="M730.6 387L740.6 350L708.2 374Z" fill="#081c58" stroke="#081c58"></path><path d="M708.2 374L740.6 350L689.2 349Z" fill="#00101c" stroke="#00101c"></path><path d="M730.6 387L708.2 374L703.6 391Z" fill="#211967" stroke="#211967"></path><path d="M730.6 387L703.6 391L682.6 443Z" fill="#00193b" stroke="#00193b"></path><path d="M578.2 540L624.7 525L550.7 470Z" fill="#001731" stroke="#001731"></path><path d="M732.1 509L730.6 387L682.6 443Z" fill="#001731" stroke="#001731"></path><path d="M732.1 509L682.6 443L665.1 472Z" fill="#001c4f" stroke="#001c4f"></path><path d="M616.7 32L579.6 0L603.2 66Z" fill="#141b60" stroke="#141b60"></path><path d="M383.8 0L301.8 0L341.4 84Z" fill="#001c4f" stroke="#001c4f"></path><path d="M292.9 50L226.9 51L280.8 95Z" fill="#141b60" stroke="#141b60"></path><path d="M222.4 119L121.5 62L219.4 125Z" fill="#001731" stroke="#001731"></path><path d="M578.2 540L606.7 540L624.7 525Z" fill="#2e156e" stroke="#2e156e"></path><path d="M372.3 580L606.7 540L578.2 540Z" fill="#001c4f" stroke="#001c4f"></path><path d="M246.9 561L372.3 580L348.8 556Z" fill="#3c0d73" stroke="#3c0d73"></path><path d="M348.8 556L372.3 580L403.8 540Z" fill="#001b46" stroke="#001b46"></path><path d="M246.9 561L348.8 556L320.3 540Z" fill="#3c0d73" stroke="#3c0d73"></path><path d="M287.4 0L226.9 51L292.9 50Z" fill="#00193b" stroke="#00193b"></path><path d="M736.6 123L679.6 119L698.1 176Z" fill="#001731" stroke="#001731"></path><path d="M679.6 119L700.6 94L643.6 88Z" fill="#3c0d73" stroke="#3c0d73"></path><path d="M616.7 32L671.2 0L579.6 0Z" fill="#081c58" stroke="#081c58"></path><path d="M741.6 151L698.1 176L743.6 154Z" fill="#081c58" stroke="#081c58"></path><path d="M701.2 182L761.1 196L743.6 154Z" fill="#081c58" stroke="#081c58"></path><path d="M790.6 566L614.6 540L606.7 540Z" fill="#001b46" stroke="#001b46"></path><path d="M606.7 540L614.6 540L624.7 525Z" fill="#001b46" stroke="#001b46"></path><path d="M624.7 525L732.1 509L665.1 472Z" fill="#001c4f" stroke="#001c4f"></path><path d="M301.8 0L289.9 0L292.9 50Z" fill="#001c4f" stroke="#001c4f"></path><path d="M289.9 0L287.4 0L292.9 50Z" fill="#001c4f" stroke="#001c4f"></path><path d="M704.6 105L700.6 94L679.6 119Z" fill="#3c0d73" stroke="#3c0d73"></path><path d="M225.4 520L251.8 540L243.4 487Z" fill="#001426" stroke="#001426"></path><path d="M243.4 487L251.8 540L297.4 472Z" fill="#3c0d73" stroke="#3c0d73"></path><path d="M225.4 520L136.4 540L214.9 540Z" fill="#211967" stroke="#211967"></path><path d="M225.4 520L218.4 460L136.4 540Z" fill="#001426" stroke="#001426"></path><path d="M701.2 182L699.2 257L761.1 196Z" fill="#00101c" stroke="#00101c"></path><path d="M704.6 105L718.2 91L700.6 94Z" fill="#001426" stroke="#001426"></path><path d="M78.9 230L115.4 280L164.9 184Z" fill="#211967" stroke="#211967"></path><path d="M164.9 184L115.4 280L184.9 257Z" fill="#001b46" stroke="#001b46"></path><path d="M761.1 196L699.2 257L773.6 215Z" fill="#081c58" stroke="#081c58"></path><path d="M784.1 317L766.1 315L740.6 350Z" fill="#00193b" stroke="#00193b"></path><path d="M740.6 350L766.1 315L730.1 287Z" fill="#001b46" stroke="#001b46"></path><path d="M773.6 215L699.2 257L730.1 287Z" fill="#211967" stroke="#211967"></path><path d="M835.6 171L736.6 123L743.6 154Z" fill="#00193b" stroke="#00193b"></path><path d="M743.6 154L736.6 123L741.6 151Z" fill="#001b46" stroke="#001b46"></path><path d="M741.6 151L736.6 123L698.1 176Z" fill="#3c0d73" stroke="#3c0d73"></path><path d="M736.6 123L718.2 91L704.6 105Z" fill="#3c0d73" stroke="#3c0d73"></path><path d="M700.6 94L671.2 0L643.6 88Z" fill="#2e156e" stroke="#2e156e"></path><path d="M761.1 196L835.6 171L743.6 154Z" fill="#3c0d73" stroke="#3c0d73"></path><path d="M766.1 315L773.6 215L730.1 287Z" fill="#001b46" stroke="#001b46"></path><path d="M214.9 540L246.9 561L251.8 540Z" fill="#211967" stroke="#211967"></path><path d="M251.8 540L246.9 561L320.3 540Z" fill="#3c0d73" stroke="#3c0d73"></path><path d="M851.6 377L784.1 317L740.6 350Z" fill="#001731" stroke="#001731"></path><path d="M766.1 315L784.1 317L773.6 215Z" fill="#001426" stroke="#001426"></path><path d="M848.5 299L784.1 317L863.1 365Z" fill="#001731" stroke="#001731"></path><path d="M225.4 520L214.9 540L251.8 540Z" fill="#001c4f" stroke="#001c4f"></path><path d="M136.4 540L218.4 460L200.9 436Z" fill="#3c0d73" stroke="#3c0d73"></path><path d="M103.5 525L200.9 436L157.9 385Z" fill="#00193b" stroke="#00193b"></path><path d="M727.1 -2L700.6 94L718.2 91Z" fill="#00101c" stroke="#00101c"></path><path d="M727.1 -2L671.2 0L700.6 94Z" fill="#211967" stroke="#211967"></path><path d="M80.4 129L78.9 230L164.9 184Z" fill="#00193b" stroke="#00193b"></path><path d="M115.4 280L52.5 322L157.9 385Z" fill="#001b46" stroke="#001b46"></path><path d="M740.1 540L732.1 509L624.7 525Z" fill="#2e156e" stroke="#2e156e"></path><path d="M151.5 18L121.5 62L226.9 51Z" fill="#001731" stroke="#001731"></path><path d="M226.9 51L121.5 62L222.4 119Z" fill="#001c4f" stroke="#001c4f"></path><path d="M287.4 0L151.5 18L226.9 51Z" fill="#081c58" stroke="#081c58"></path><path d="M121.5 62L80.4 129L164.9 184Z" fill="#001c4f" stroke="#001c4f"></path><path d="M40.9 296L115.4 280L78.9 230Z" fill="#211967" stroke="#211967"></path><path d="M40.9 296L52.5 322L115.4 280Z" fill="#081c58" stroke="#081c58"></path><path d="M790.6 566L740.1 540L614.6 540Z" fill="#3c0d73" stroke="#3c0d73"></path><path d="M614.6 540L740.1 540L624.7 525Z" fill="#141b60" stroke="#141b60"></path><path d="M851.6 377L740.6 350L730.6 387Z" fill="#2e156e" stroke="#2e156e"></path><path d="M52.5 322L65.5 411L157.9 385Z" fill="#00193b" stroke="#00193b"></path><path d="M743.1 0L727.1 -2L718.2 91Z" fill="#081c58" stroke="#081c58"></path><path d="M671.2 0L727.1 -2L579.6 0Z" fill="#211967" stroke="#211967"></path><path d="M579.6 0L960 -11L511.7 0Z" fill="#141b60" stroke="#141b60"></path><path d="M511.7 0L960 -11L458.2 0Z" fill="#211967" stroke="#211967"></path><path d="M458.2 0L960 -11L412.3 0Z" fill="#2e156e" stroke="#2e156e"></path><path d="M412.3 0L960 -11L383.8 0Z" fill="#081c58" stroke="#081c58"></path><path d="M383.8 0L960 -11L301.8 0Z" fill="#001426" stroke="#001426"></path><path d="M301.8 0L960 -11L289.9 0Z" fill="#141b60" stroke="#141b60"></path><path d="M289.9 0L960 -11L287.4 0Z" fill="#001731" stroke="#001731"></path><path d="M743.1 0L718.2 91L766.1 15Z" fill="#3c0d73" stroke="#3c0d73"></path><path d="M121.5 62L78.9 102L80.4 129Z" fill="#00101c" stroke="#00101c"></path><path d="M151.5 18L139.4 15L121.5 62Z" fill="#141b60" stroke="#141b60"></path><path d="M141.9 0L139.4 15L151.5 18Z" fill="#001426" stroke="#001426"></path><path d="M2.5 241L40.9 296L78.9 230Z" fill="#001c4f" stroke="#001c4f"></path><path d="M52.5 322L22.9 394L65.5 411Z" fill="#00193b" stroke="#00193b"></path><path d="M86.5 0L78.9 102L121.5 62Z" fill="#001c4f" stroke="#001c4f"></path><path d="M80.4 129L46.9 158L78.9 230Z" fill="#001731" stroke="#001731"></path><path d="M103.5 525L136.4 540L200.9 436Z" fill="#00101c" stroke="#00101c"></path><path d="M214.9 540L136.4 540L246.9 561Z" fill="#3c0d73" stroke="#3c0d73"></path><path d="M851.6 377L730.6 387L870.5 440Z" fill="#141b60" stroke="#141b60"></path><path d="M784.1 317L848.5 299L773.6 215Z" fill="#3c0d73" stroke="#3c0d73"></path><path d="M773.6 215L835.6 171L761.1 196Z" fill="#00101c" stroke="#00101c"></path><path d="M287.4 0L141.9 0L151.5 18Z" fill="#001731" stroke="#001731"></path><path d="M139.4 15L86.5 0L121.5 62Z" fill="#141b60" stroke="#141b60"></path><path d="M960 -11L141.9 0L287.4 0Z" fill="#00193b" stroke="#00193b"></path><path d="M859.5 229L835.6 171L773.6 215Z" fill="#001b46" stroke="#001b46"></path><path d="M766.1 15L718.2 91L736.6 123Z" fill="#2e156e" stroke="#2e156e"></path><path d="M960 -11L138.4 0L141.9 0Z" fill="#211967" stroke="#211967"></path><path d="M141.9 0L138.4 0L139.4 15Z" fill="#001c4f" stroke="#001c4f"></path><path d="M78.9 102L46.9 158L80.4 129Z" fill="#001b46" stroke="#001b46"></path><path d="M867.1 144L766.1 15L736.6 123Z" fill="#00193b" stroke="#00193b"></path><path d="M65.5 411L103.5 525L157.9 385Z" fill="#141b60" stroke="#141b60"></path><path d="M848.5 299L859.5 229L773.6 215Z" fill="#001b46" stroke="#001b46"></path><path d="M870.5 440L730.6 387L866.5 472Z" fill="#00193b" stroke="#00193b"></path><path d="M848.5 299L870.1 284L859.5 229Z" fill="#001c4f" stroke="#001c4f"></path><path d="M869.6 353L870.1 284L848.5 299Z" fill="#211967" stroke="#211967"></path><path d="M790.6 566L781.1 540L740.1 540Z" fill="#001426" stroke="#001426"></path><path d="M740.1 540L781.1 540L732.1 509Z" fill="#00101c" stroke="#00101c"></path><path d="M888.6 395L863.1 365L851.6 377Z" fill="#211967" stroke="#211967"></path><path d="M851.6 377L863.1 365L784.1 317Z" fill="#00101c" stroke="#00101c"></path><path d="M0 343L22.9 394L52.5 322Z" fill="#00193b" stroke="#00193b"></path><path d="M65.5 411L64.9 540L103.5 525Z" fill="#001b46" stroke="#001b46"></path><path d="M0 306L52.5 322L40.9 296Z" fill="#081c58" stroke="#081c58"></path><path d="M888.6 395L869.6 353L863.1 365Z" fill="#141b60" stroke="#141b60"></path><path d="M863.1 365L869.6 353L848.5 299Z" fill="#001c4f" stroke="#001c4f"></path><path d="M0 205L2.5 241L78.9 230Z" fill="#001731" stroke="#001731"></path><path d="M2.5 241L0 269L40.9 296Z" fill="#2e156e" stroke="#2e156e"></path><path d="M0 269L0 306L40.9 296Z" fill="#081c58" stroke="#081c58"></path><path d="M859.5 229L867.1 144L835.6 171Z" fill="#2e156e" stroke="#2e156e"></path><path d="M835.6 171L867.1 144L736.6 123Z" fill="#2e156e" stroke="#2e156e"></path><path d="M872.5 143L867.1 144L859.5 229Z" fill="#001426" stroke="#001426"></path><path d="M0 306L0 343L52.5 322Z" fill="#141b60" stroke="#141b60"></path><path d="M2.5 241L-33.5 143L0 269Z" fill="#001b46" stroke="#001b46"></path><path d="M46.9 158L0 205L78.9 230Z" fill="#3c0d73" stroke="#3c0d73"></path><path d="M-2.5 174L0 205L46.9 158Z" fill="#001c4f" stroke="#001c4f"></path><path d="M-2.5 174L46.9 158L0 103Z" fill="#3c0d73" stroke="#3c0d73"></path><path d="M960 -11L86.5 0L138.4 0Z" fill="#2e156e" stroke="#2e156e"></path><path d="M138.4 0L86.5 0L139.4 15Z" fill="#001b46" stroke="#001b46"></path><path d="M890.5 140L872.5 143L859.5 229Z" fill="#211967" stroke="#211967"></path><path d="M850.1 11L839.6 0L766.1 15Z" fill="#00193b" stroke="#00193b"></path><path d="M890.5 140L960 226L935.5 121Z" fill="#081c58" stroke="#081c58"></path><path d="M372.3 580L790.6 566L606.7 540Z" fill="#001c4f" stroke="#001c4f"></path><path d="M866.5 472L730.6 387L732.1 509Z" fill="#00193b" stroke="#00193b"></path><path d="M0 103L46.9 158L78.9 102Z" fill="#3c0d73" stroke="#3c0d73"></path><path d="M0 205L-33.5 143L2.5 241Z" fill="#2e156e" stroke="#2e156e"></path><path d="M-33.5 143L0 343L0 306Z" fill="#141b60" stroke="#141b60"></path><path d="M-33.5 143L-6.5 458L0 343Z" fill="#001731" stroke="#001731"></path><path d="M-6.5 458L0 401L0 343Z" fill="#211967" stroke="#211967"></path><path d="M0 343L0 401L22.9 394Z" fill="#001731" stroke="#001731"></path><path d="M22.9 394L-6.5 458L65.5 411Z" fill="#141b60" stroke="#141b60"></path><path d="M866.5 472L732.1 509L781.1 540Z" fill="#001c4f" stroke="#001c4f"></path><path d="M869.6 353L960 323L870.1 284Z" fill="#001426" stroke="#001426"></path><path d="M-6.5 458L64.9 540L65.5 411Z" fill="#3c0d73" stroke="#3c0d73"></path><path d="M103.5 525L54.9 563L136.4 540Z" fill="#001c4f" stroke="#001c4f"></path><path d="M136.4 540L54.9 563L246.9 561Z" fill="#001731" stroke="#001731"></path><path d="M246.9 561L0 576L372.3 580Z" fill="#2e156e" stroke="#2e156e"></path><path d="M-6.5 458L0 406L0 401Z" fill="#001c4f" stroke="#001c4f"></path><path d="M0 401L0 406L22.9 394Z" fill="#211967" stroke="#211967"></path><path d="M870.5 440L888.6 395L851.6 377Z" fill="#001426" stroke="#001426"></path><path d="M841.5 540L866.5 472L781.1 540Z" fill="#141b60" stroke="#141b60"></path><path d="M870.5 440L915.5 460L888.6 395Z" fill="#001731" stroke="#001731"></path><path d="M890.5 140L859.5 229L960 226Z" fill="#001b46" stroke="#001b46"></path><path d="M850.1 11L766.1 15L867.1 144Z" fill="#3c0d73" stroke="#3c0d73"></path><path d="M0 47L0 103L78.9 102Z" fill="#00193b" stroke="#00193b"></path><path d="M790.6 566L841.5 540L781.1 540Z" fill="#081c58" stroke="#081c58"></path><path d="M2.5 540L54.9 563L64.9 540Z" fill="#3c0d73" stroke="#3c0d73"></path><path d="M64.9 540L54.9 563L103.5 525Z" fill="#001731" stroke="#001731"></path><path d="M0 406L-6.5 458L22.9 394Z" fill="#001731" stroke="#001731"></path><path d="M-33.5 143L0 306L0 269Z" fill="#001731" stroke="#001731"></path><path d="M743.1 0L839.6 0L727.1 -2Z" fill="#001426" stroke="#001426"></path><path d="M766.1 15L839.6 0L743.1 0Z" fill="#141b60" stroke="#141b60"></path><path d="M850.1 11L867.1 144L908.5 80Z" fill="#001426" stroke="#001426"></path><path d="M908.5 80L867.1 144L872.5 143Z" fill="#081c58" stroke="#081c58"></path><path d="M790.6 566L853.6 540L841.5 540Z" fill="#001731" stroke="#001731"></path><path d="M841.5 540L853.6 540L866.5 472Z" fill="#081c58" stroke="#081c58"></path><path d="M866.5 472L890.1 483L870.5 440Z" fill="#3c0d73" stroke="#3c0d73"></path><path d="M0 103L-33.5 143L-2.5 174Z" fill="#001b46" stroke="#001b46"></path><path d="M-2.5 174L-33.5 143L0 205Z" fill="#2e156e" stroke="#2e156e"></path><path d="M888.1 504L890.1 483L866.5 472Z" fill="#211967" stroke="#211967"></path><path d="M935.5 121L908.5 80L890.5 140Z" fill="#141b60" stroke="#141b60"></path><path d="M86.5 0L0 47L78.9 102Z" fill="#2e156e" stroke="#2e156e"></path><path d="M0 103L0 47L-33.5 143Z" fill="#00193b" stroke="#00193b"></path><path d="M853.6 540L888.1 504L866.5 472Z" fill="#00101c" stroke="#00101c"></path><path d="M859.5 229L870.1 284L960 226Z" fill="#141b60" stroke="#141b60"></path><path d="M890.5 140L908.5 80L872.5 143Z" fill="#00101c" stroke="#00101c"></path><path d="M888.1 504L915.5 460L890.1 483Z" fill="#081c58" stroke="#081c58"></path><path d="M890.1 483L915.5 460L870.5 440Z" fill="#001426" stroke="#001426"></path><path d="M-6.5 458L2.5 540L64.9 540Z" fill="#001b46" stroke="#001b46"></path><path d="M0 576L0 540L-6.5 458Z" fill="#00193b" stroke="#00193b"></path><path d="M-6.5 458L0 540L2.5 540Z" fill="#3c0d73" stroke="#3c0d73"></path><path d="M2.5 540L0 576L54.9 563Z" fill="#3c0d73" stroke="#3c0d73"></path><path d="M960 323L869.6 353L960 329Z" fill="#00193b" stroke="#00193b"></path><path d="M960 329L869.6 353L960 363Z" fill="#001b46" stroke="#001b46"></path><path d="M960 323L960 226L870.1 284Z" fill="#001731" stroke="#001731"></path><path d="M960 363L869.6 353L888.6 395Z" fill="#081c58" stroke="#081c58"></path><path d="M960 -11L0 0L86.5 0Z" fill="#001c4f" stroke="#001c4f"></path><path d="M86.5 0L0 0L0 47Z" fill="#2e156e" stroke="#2e156e"></path><path d="M0 47L0 0L-33.5 143Z" fill="#3c0d73" stroke="#3c0d73"></path><path d="M960 400L960 363L888.6 395Z" fill="#00101c" stroke="#00101c"></path><path d="M960 408L888.6 395L915.5 460Z" fill="#081c58" stroke="#081c58"></path><path d="M960 408L960 400L888.6 395Z" fill="#001b46" stroke="#001b46"></path><path d="M-33.5 143L0 576L-6.5 458Z" fill="#001426" stroke="#001426"></path><path d="M0 540L0 576L2.5 540Z" fill="#211967" stroke="#211967"></path><path d="M54.9 563L0 576L246.9 561Z" fill="#001b46" stroke="#001b46"></path><path d="M914.1 0L897.5 0L908.5 80Z" fill="#081c58" stroke="#081c58"></path><path d="M908.5 80L897.5 0L850.1 11Z" fill="#141b60" stroke="#141b60"></path><path d="M850.1 11L897.5 0L839.6 0Z" fill="#3c0d73" stroke="#3c0d73"></path><path d="M839.6 0L960 -11L727.1 -2Z" fill="#2e156e" stroke="#2e156e"></path><path d="M960 540L960 408L915.5 460Z" fill="#00193b" stroke="#00193b"></path><path d="M960 226L960 126L935.5 121Z" fill="#00101c" stroke="#00101c"></path><path d="M935.5 121L960 93L908.5 80Z" fill="#001b46" stroke="#001b46"></path><path d="M960 0L914.1 0L908.5 80Z" fill="#001426" stroke="#001426"></path><path d="M897.5 0L960 -11L839.6 0Z" fill="#3c0d73" stroke="#3c0d73"></path><path d="M960 126L960 93L935.5 121Z" fill="#2e156e" stroke="#2e156e"></path><path d="M853.6 540L960 540L888.1 504Z" fill="#001731" stroke="#001731"></path><path d="M888.1 504L960 540L915.5 460Z" fill="#00101c" stroke="#00101c"></path><path d="M790.6 566L960 540L853.6 540Z" fill="#211967" stroke="#211967"></path><path d="M960 93L960 0L908.5 80Z" fill="#001b46" stroke="#001b46"></path><path d="M914.1 0L960 -11L897.5 0Z" fill="#001426" stroke="#001426"></path><path d="M960 0L960 -11L914.1 0Z" fill="#3c0d73" stroke="#3c0d73"></path><path d="M727.1 -2L960 -11L579.6 0Z" fill="#001426" stroke="#001426"></path></g></svg>